<?xml version="1.0" encoding="utf-8"?>
<!-- Generator: Adobe Illustrator 19.2.0, SVG Export Plug-In . SVG Version: 6.00 Build 0)  -->
<svg version="1.1" id="Layer_1" xmlns="http://www.w3.org/2000/svg" xmlns:xlink="http://www.w3.org/1999/xlink" x="0px" y="0px"
	 viewBox="0 0 42.5 52" style="enable-background:new 0 0 42.5 52;" xml:space="preserve">
<style type="text/css">
	.st0{fill:#6D6E71;}
</style>
<g>
	<path class="st0" d="M11.2,16.3c0.2,0.8,0.5,1.4,0.8,1.7c0.8,5.3,5.6,9.9,9.4,9.7c4.9-0.2,8.4-5.5,9.2-9.7c0.3-0.3,0.6-1,0.8-1.9
		c0.2-1,0.4-2.4-0.1-3.2c0,0-0.3-0.2-0.3-0.3c0.6-2,1.8-5.5-1.3-8.7c-1.6-1.7-3.9-2.6-6-3.3c-6.1-2-10.3,0.8-12.3,5.5
		c-0.1,0.3-1.1,2.4,0.1,6.5c-0.1,0.1-0.2,0.2-0.3,0.3C10.6,13.7,11,15.3,11.2,16.3L11.2,16.3z M11.2,16.3"/>
	<path class="st0" d="M42.5,45.7c-0.2-3.7-0.4-9.5-3.6-14.3c0,0-0.9-1.2-3.1-2.1c0,0-4.7-1.4-6.9-3l-1,0.7l0.1,6.5l-6,15.9
		C22,49.7,21.6,50,21.3,50c-0.4,0-0.7-0.2-0.8-0.6l-6-15.9c0,0,0.1-6.4,0.1-6.5c0,0.1-1-0.7-1-0.7c-2.2,1.6-6.9,3-6.9,3
		c-2.2,0.8-3.1,2.1-3.1,2.1C0.4,36.2,0.2,42,0,45.7c-0.1,2.5,0.4,3.5,1.1,3.8c8.3,3.3,32,3.3,40.3,0C42.1,49.2,42.6,48.2,42.5,45.7
		L42.5,45.7z M42.5,45.7"/>
	<path class="st0" d="M21.5,29.8h-0.3c-0.9,0-1.7-0.2-2.6-0.5l2.4,3.6l-2.1,2L21,48.2c0,0.1,0.1,0.2,0.2,0.2c0.1,0,0.2-0.1,0.2-0.2
		L23.7,35l-2.1-2l2.3-3.6C23.1,29.6,22.3,29.7,21.5,29.8L21.5,29.8z M21.5,29.8"/>
</g>
</svg>
