<?xml version="1.0" encoding="utf-8"?>
<!-- Generator: Adobe Illustrator 19.2.0, SVG Export Plug-In . SVG Version: 6.00 Build 0)  -->
<svg version="1.1" id="Layer_1" xmlns="http://www.w3.org/2000/svg" xmlns:xlink="http://www.w3.org/1999/xlink" x="0px" y="0px"
	 viewBox="0 0 53.8 51.6" style="enable-background:new 0 0 53.8 51.6;" xml:space="preserve">
<style type="text/css">
	.st0{fill:#6D6E71;}
</style>
<g>
	<path class="st0" d="M37.3,25.8c-3.6-1.4-6.8-7.7-8.5-12.1C25.5,5,22.2-0.2,12.8,0C0.7,0.3,0,11.5,0,11.5v37.3
		c0,1.6,1.3,2.8,2.8,2.8h47.1c1.6,0,3.1-1.2,3.3-2.8c1-6.3,2.1-21.1-9.2-21.6C41.3,27.1,39,26.5,37.3,25.8L37.3,25.8z M50.2,48.9
		H2.3V38.4H5v7.7h3v-7.7h2.4v7.7h3v-7.7h2.4v7.7h3v-7.7h2.4v7.7h3v-7.7h2.4v7.7h3v-7.7h2.4v7.7h3v-7.7h2.4v7.7h3v-7.7H43v7.7h3v-7.7
		h4.2V48.9z M50.2,48.9"/>
</g>
</svg>
