<?xml version="1.0" encoding="utf-8"?>
<!-- Generator: Adobe Illustrator 19.2.0, SVG Export Plug-In . SVG Version: 6.00 Build 0)  -->
<svg version="1.1" id="Layer_1" xmlns="http://www.w3.org/2000/svg" xmlns:xlink="http://www.w3.org/1999/xlink" x="0px" y="0px"
	 viewBox="0 0 72.3 52" style="enable-background:new 0 0 72.3 52;" xml:space="preserve">
<style type="text/css">
	.st0{fill:#6D6E71;}
</style>
<g>
	<path class="st0" d="M21.7,38.3c-3.7,0-6.7,2.9-6.7,6.5c0,3.7,2.9,6.7,6.5,6.7c3.7,0.1,6.7-2.9,6.7-6.5
		C28.3,41.3,25.4,38.3,21.7,38.3L21.7,38.3z M21.6,47.8c-1.6,0-2.9-1.3-2.8-2.9c0-1.6,1.3-2.9,2.9-2.8c1.6,0,2.9,1.3,2.8,2.9
		C24.5,46.5,23.2,47.8,21.6,47.8L21.6,47.8z M21.6,47.8"/>
	<path class="st0" d="M51.3,38.7c-3.7-0.1-6.7,2.9-6.7,6.5c-0.1,3.7,2.9,6.7,6.5,6.7c3.7,0.1,6.7-2.9,6.7-6.5
		C57.9,41.7,55,38.7,51.3,38.7L51.3,38.7z M51.2,48.2c-1.6,0-2.9-1.3-2.8-2.9c0-1.6,1.3-2.9,2.9-2.8c1.6,0,2.9,1.3,2.8,2.9
		C54.1,46.9,52.8,48.2,51.2,48.2L51.2,48.2z M51.2,48.2"/>
	<path class="st0" d="M63.9,27c-2.9-0.8-5.3-3.1-6.4-5.3L53.6,14c-1.1-2.2-4-4-6.5-4.1L23.7,9.6c-2.5,0-5.2,1.8-6,4.2l-2.5,7.2
		c-0.3,0.9-1.9,5.7-5.2,5.6c-2.5,0-5.2,3.2-5.2,5.6l0,2.7c-0.9-0.4-1.7-0.9-2.1-1.7c-1.3-2-0.5-4.8-0.2-5.4c0.8-1.8,2.4-3,4.7-3.6
		c5-1.2,6.6-6.7,6.8-7.2l3-8.4c0.8-2.4,3.7-4.3,6.2-4.3L48,4.5l0,0.8c0,1.1,0.9,2,2,2l2.2,0c0.8,0,1.5-0.5,1.9-1.2l2,0
		c0.4,0,0.8-0.4,0.8-0.8l0-0.2c0-0.4-0.4-0.8-0.8-0.8l-1.9,0l0-1.2l1.9,0c0.4,0,0.8-0.4,0.8-0.8l0-0.2c0-0.4-0.4-0.8-0.8-0.8l-2,0
		c-0.3-0.7-1-1.2-1.8-1.2L50,0c-1.1,0-2,0.9-2,2l0,0.8L23.1,2.4c-3.3,0-6.8,2.4-7.9,5.5l-3,8.5l0,0.1c0,0-1.4,5-5.5,6
		c-2.9,0.7-4.9,2.2-6,4.6c-0.5,1-1.4,4.5,0.3,7.1c0.8,1.2,2,2.1,3.6,2.6l-0.1,3.9c0,2.5,2,4.5,4.4,4.5l4.6,0.1c0-0.2,0-0.3,0-0.5
		c0.1-4.4,3.7-8,8.1-7.9c4.4,0.1,8,3.7,7.9,8.1c0,0.2,0,0.3,0,0.5l13.6,0.2c0-0.2,0-0.3,0-0.5c0.1-4.4,3.7-8,8.1-7.9
		c4.4,0.1,8,3.7,7.9,8.1c0,0.2,0,0.3,0,0.5l8.4,0.1c2.5,0,4.5-2,4.5-4.4l0.1-6.7C72.3,27.8,66.3,27.7,63.9,27L63.9,27z M16.6,25.3
		c0.7-1.1,1.1-2.3,1.2-2.7l2.2-6.1c0.7-2,3-3.5,5.1-3.5l4.6,0.1l-0.2,12.4L16.6,25.3z M34,25.5l0.2-12.4l10.7,0.1
		c2.1,0,4.6,1.6,5.5,3.4l3.3,6.5c0.4,0.9,1.1,1.8,2,2.6L34,25.5z M34,25.5"/>
</g>
</svg>
