<?xml version="1.0" encoding="utf-8"?>
<!-- Generator: Adobe Illustrator 19.2.0, SVG Export Plug-In . SVG Version: 6.00 Build 0)  -->
<svg version="1.1" id="Layer_1" xmlns="http://www.w3.org/2000/svg" xmlns:xlink="http://www.w3.org/1999/xlink" x="0px" y="0px"
	 viewBox="0 0 72.1 51.6" style="enable-background:new 0 0 72.1 51.6;" xml:space="preserve">
<style type="text/css">
	.st0{fill:#6D6E71;}
</style>
<g>
	<path class="st0" d="M72.1,46.2V0H0v46.2h29.4v3H14v2.5h43.1v-2.5H42.1v-3H72.1z M5.3,39.4V5.3h61.5v34.1H5.3z M5.3,39.4"/>
	<path class="st0" d="M16.8,19.1h38.5V9.7H16.8V19.1z M17.5,10.5h36.9v7.9H17.5V10.5z M17.5,10.5"/>
	<path class="st0" d="M16.7,29.1h11.8v-8.5H16.7V29.1z M17.5,21.4h10.3v7H17.5V21.4z M17.5,21.4"/>
	<path class="st0" d="M30,29.1h11.8v-8.5H30V29.1z M30.8,21.4h10.3v7H30.8V21.4z M30.8,21.4"/>
	<path class="st0" d="M55.3,20.6H43.4v8.5h11.8V20.6z M54.5,28.4H44.2v-7h10.3V28.4z M54.5,28.4"/>
	<rect x="16.7" y="31.1" class="st0" width="10.7" height="0.7"/>
	<rect x="16.7" y="32.4" class="st0" width="11.8" height="0.7"/>
	<rect x="16.7" y="33.8" class="st0" width="9.6" height="0.7"/>
	<rect x="16.7" y="35.4" class="st0" width="10.8" height="0.7"/>
	<rect x="16" y="36.8" class="st0" width="6.9" height="0.7"/>
	<rect x="30" y="31.1" class="st0" width="10.7" height="0.7"/>
	<rect x="30" y="32.4" class="st0" width="11.8" height="0.7"/>
	<rect x="30" y="33.8" class="st0" width="9.6" height="0.7"/>
	<rect x="30" y="35.4" class="st0" width="10.8" height="0.7"/>
	<rect x="29.3" y="36.8" class="st0" width="6.9" height="0.7"/>
	<rect x="43.5" y="31" class="st0" width="10.7" height="0.7"/>
	<rect x="43.5" y="32.4" class="st0" width="11.8" height="0.7"/>
	<rect x="43.5" y="33.8" class="st0" width="9.6" height="0.7"/>
	<rect x="43.5" y="35.3" class="st0" width="10.8" height="0.7"/>
	<rect x="42.9" y="36.7" class="st0" width="6.9" height="0.7"/>
	<path class="st0" d="M34.4,6.6H16.7v2.1h17.7V6.6z M33.6,8H17.5V7.4h16.1V8z M33.6,8"/>
</g>
</svg>
