<?xml version="1.0" encoding="utf-8"?>
<!-- Generator: Adobe Illustrator 19.2.0, SVG Export Plug-In . SVG Version: 6.00 Build 0)  -->
<svg version="1.1" id="Layer_1" xmlns="http://www.w3.org/2000/svg" xmlns:xlink="http://www.w3.org/1999/xlink" x="0px" y="0px"
	 viewBox="0 0 63.9 52" style="enable-background:new 0 0 63.9 52;" xml:space="preserve">
<style type="text/css">
	.st0{fill:#6D6E71;}
</style>
<path class="st0" d="M63.8,47.5l-10-31c-0.4-1.4-1.7-2.3-3.2-2.3H40c0.9-1.4,1.4-3.1,1.4-4.8C41.4,4.2,37.2,0,32,0s-9.4,4.2-9.4,9.4
	c0,1.8,0.5,3.4,1.4,4.8H13.4c-1.4,0-2.7,0.9-3.2,2.3l-10,31c-0.7,2.1,0.9,4.3,3.2,4.3h57.3C62.9,51.9,64.5,49.7,63.8,47.5L63.8,47.5
	z M27,9.4c0-2.7,2.2-5,5-5s5,2.2,5,5c0,2.4-1.7,4.4-3.9,4.8h-2.1C28.7,13.8,27,11.8,27,9.4L27,9.4z M27.6,41.1l-2.9-5.5h-1.4v5.5H20
	V27.5h3.3v5.2h1.4l2.8-5.2h3.6L27.4,34v0l3.9,7.1H27.6z M45.1,41.1h-2.8v-0.4c0-0.3,0-0.6,0-0.6h0c0,0-1.3,1.2-3.6,1.2
	c-3.5,0-6.7-2.6-6.7-7.1c0-4,3-7,7.1-7c3.5,0,5.2,1.8,5.2,1.8l-1.6,2.5c0,0-1.4-1.3-3.3-1.3c-2.9,0-4,1.8-4,3.8
	c0,2.6,1.8,4.1,3.9,4.1c1.6,0,2.8-1,2.8-1v-1h-1.9v-2.8h4.9V41.1z M45.1,41.1"/>
</svg>
