<?xml version="1.0" encoding="utf-8"?>
<!-- Generator: Adobe Illustrator 19.2.0, SVG Export Plug-In . SVG Version: 6.00 Build 0)  -->
<svg version="1.1" id="Layer_1" xmlns="http://www.w3.org/2000/svg" xmlns:xlink="http://www.w3.org/1999/xlink" x="0px" y="0px"
	 viewBox="0 0 42 52" style="enable-background:new 0 0 42 52;" xml:space="preserve">
<style type="text/css">
	.st0{fill:#6D6E71;}
</style>
<g>
	<path class="st0" d="M41.4,13.8h-0.6l-1.5-4.1c-0.1-0.4-0.5-0.7-0.8-0.8l-1.9-0.6c-0.7-0.2-1.5,0.2-1.7,0.9
		c-0.2,0.7,0.2,1.5,0.9,1.7l1.3,0.4l0.9,2.6h-0.4c-0.3,0-0.5,0.2-0.6,0.4l-1.1,2.4c0,0.1-0.1,0.2-0.1,0.3l0.4,7.3
		c0,0.4,0.3,0.6,0.7,0.6h0.4v15.9c0,1.8-1,3.3-2.5,4.1v-9.9c0-1-0.4-1.9-0.9-2.6V5c0-2.7-2.2-5-5-5h-23c-2.7,0-5,2.2-5,5v27.4
		C0.4,33,0,33.9,0,34.9v12.9c0,2.2,1.8,4,4,4h26.8c2,0,3.7-1.5,4-3.4c3.4-0.9,5.9-4,5.9-7.7V24.8h0.7c0.4,0,0.7-0.3,0.7-0.7v-9.7
		C42,14,41.7,13.8,41.4,13.8L41.4,13.8z M17.4,36.4c-3.1,0-5.7-2.5-5.7-5.7s5.7-9.1,5.7-9.1s5.7,6,5.7,9.1S20.5,36.4,17.4,36.4
		L17.4,36.4z M28.5,14.3H6.3V5.3h22.3V14.3z M28.5,14.3"/>
</g>
</svg>
