<?xml version="1.0" encoding="utf-8"?>
<!-- Generator: Adobe Illustrator 19.2.0, SVG Export Plug-In . SVG Version: 6.00 Build 0)  -->
<svg version="1.1" id="Layer_1" xmlns="http://www.w3.org/2000/svg" xmlns:xlink="http://www.w3.org/1999/xlink" x="0px" y="0px"
	 viewBox="0 0 22 51.6" style="enable-background:new 0 0 22 51.6;" xml:space="preserve">
<style type="text/css">
	.st0{fill:#6D6E71;}
</style>
<g>
	<path class="st0" d="M17.7,8.9c0-4.9-4-8.9-8.9-8.9C4,0,0,4,0,8.9c0,2.3,0.9,4.3,2.3,5.9h13.2C16.9,13.2,17.7,11.1,17.7,8.9
		L17.7,8.9z M17.7,8.9"/>
	<path class="st0" d="M19.3,44.4c0,2.5-2,4.6-4.6,4.6c-2.5,0-4.5-2-4.5-4.6h1.6l2.8-26.7H3l2.8,26.7h1.8c0,4,3.2,7.2,7.2,7.2
		c4,0,7.2-3.3,7.2-7.2H19.3z M7.2,26.6h3v5.9h-3V26.6z M7.2,26.6"/>
</g>
</svg>
