<?xml version="1.0" encoding="utf-8"?>
<!-- Generator: Adobe Illustrator 19.2.0, SVG Export Plug-In . SVG Version: 6.00 Build 0)  -->
<svg version="1.1" id="Layer_1" xmlns="http://www.w3.org/2000/svg" xmlns:xlink="http://www.w3.org/1999/xlink" x="0px" y="0px"
	 viewBox="0 0 45.1 51.6" style="enable-background:new 0 0 45.1 51.6;" xml:space="preserve">
<style type="text/css">
	.st0{fill:#6D6E71;}
</style>
<g>
	<path class="st0" d="M37.5,21.5h-2.3c-0.5,0-0.9,0-1.4,0.1v-5.2c0-0.3,0-0.6-0.1-0.8c1.5-1.1,2.5-2.9,2.5-4.9c0-3.7-3.5-6.7-7.3-6
		c-1.3-1.3-3-2.1-4.9-2C22.9,1.1,21,0,18.9,0c-1.7,0-3.3,0.7-4.5,1.8c-0.3-0.1-0.6-0.2-1-0.3L13,1.5c-0.3-0.1-0.6-0.1-1-0.1
		c-0.5,0-0.9,0-1.4,0h-0.1v0c-2.7,0.3-5,1.9-5.9,4.1C2,6,0,8.3,0,11.1c0,1.9,1,3.7,2.5,4.7c0,0.2-0.1,0.4-0.1,0.6v31
		c0,2.3,1.9,4.1,4.1,4.1h23.2c2.3,0,4.1-1.8,4.1-4.1v-6.3c0.5,0.1,0.9,0.1,1.4,0.1h2.3c4.2,0,7.6-3.4,7.6-7.6v-4.6
		C45.1,24.9,41.7,21.5,37.5,21.5L37.5,21.5z M31.1,47.5c0,0.8-0.6,1.4-1.4,1.4H6.5c-0.8,0-1.4-0.6-1.4-1.4v-31
		c0-0.7,0.6-1.4,1.4-1.4h23.2c0.8,0,1.4,0.6,1.4,1.4V47.5z M32.3,13.3L32.3,13.3c-0.7-0.6-1.6-0.9-2.6-0.9H6.5c-1,0-2,0.4-2.7,1.1
		c-0.6-0.6-1.1-1.4-1.1-2.3c0-1.6,1.3-3,3-3h1.1L7.1,7c0.3-1.3,1.6-2.7,3.7-2.9h1.5c0.6,0,1.2,0.2,1.7,0.6l1.1,0.7l0.8-1.1
		c0.7-1,1.8-1.6,3-1.6c1.4,0,2.6,0.8,3.3,2.1l0.5,1l1.1-0.2c1.4-0.3,2.9,0.3,3.7,1.5L28,8l1-0.4c0.4-0.1,0.8-0.2,1.2-0.2
		c1.9,0,3.4,1.5,3.4,3.4C33.5,11.8,33,12.7,32.3,13.3L32.3,13.3z M41,33.7c0,1.9-1.5,3.4-3.4,3.4h-2.3c-0.5,0-0.9-0.1-1.4-0.3V26
		c0.4-0.2,0.9-0.3,1.4-0.3h2.3c1.9,0,3.4,1.5,3.4,3.4V33.7z M41,33.7"/>
	<rect x="6.5" y="20.1" class="st0" width="23.2" height="27.3"/>
</g>
</svg>
