<?xml version="1.0" encoding="utf-8"?>
<!-- Generator: Adobe Illustrator 19.2.0, SVG Export Plug-In . SVG Version: 6.00 Build 0)  -->
<svg version="1.1" id="Layer_1" xmlns="http://www.w3.org/2000/svg" xmlns:xlink="http://www.w3.org/1999/xlink" x="0px" y="0px"
	 viewBox="0 0 53.5 51.6" style="enable-background:new 0 0 53.5 51.6;" xml:space="preserve">
<style type="text/css">
	.st0{fill:#6D6E71;}
</style>
<g>
	<path class="st0" d="M17.5,39.6H3.7v5.5h13.8V39.6z M10.9,43.4c-0.6,0-1.2-0.5-1.2-1.2c0-0.6,0.5-1.2,1.2-1.2
		c0.6,0,1.2,0.5,1.2,1.2C12.1,42.9,11.6,43.4,10.9,43.4L10.9,43.4z M10.9,43.4"/>
	<path class="st0" d="M17.5,29.5H3.7V35h13.8V29.5z M10.9,33.2c-0.6,0-1.2-0.5-1.2-1.2c0-0.6,0.5-1.2,1.2-1.2c0.6,0,1.2,0.5,1.2,1.2
		C12.1,32.7,11.6,33.2,10.9,33.2L10.9,33.2z M10.9,33.2"/>
	<path class="st0" d="M21.2,25.8H0v25.8h2.8v-2.8h15.7v2.8h2.8V33.2h29.5v18.4h2.8V25.8H21.2z M18.4,46.1H2.8v-7.4h15.7V46.1z
		 M18.4,35.9H2.8v-7.4h15.7V35.9z M50.7,31.3H21.2v-2.8h29.5V31.3z M50.7,31.3"/>
	<path class="st0" d="M29.5,20.3V23h-1.8v1.8h13.8V23h-1.8v-2.8H29.5z M29.5,20.3"/>
	<path class="st0" d="M49.8,0H20.3v19.4h29.5V0z M35,18c-0.6,0-1.2-0.5-1.2-1.2c0-0.6,0.5-1.2,1.2-1.2c0.6,0,1.2,0.5,1.2,1.2
		C36.2,17.5,35.7,18,35,18L35,18z M47.9,13.8H22.1v-12h25.8V13.8z M47.9,13.8"/>
</g>
</svg>
