<?xml version="1.0" encoding="utf-8"?>
<!-- Generator: Adobe Illustrator 19.2.0, SVG Export Plug-In . SVG Version: 6.00 Build 0)  -->
<svg version="1.1" id="Layer_1" xmlns="http://www.w3.org/2000/svg" xmlns:xlink="http://www.w3.org/1999/xlink" x="0px" y="0px"
	 viewBox="0 0 59.8 51.6" style="enable-background:new 0 0 59.8 51.6;" xml:space="preserve">
<style type="text/css">
	.st0{fill:#6D6E71;}
</style>
<g>
	<path class="st0" d="M58.5,0L58.5,0c-0.7,0-1.2,0.6-1.2,1.2v0.2c-0.1,5.4-5.3,14.5-7.4,17.6c-2.1,3.1-4.9,4.6-6.5,5.2
		c-0.4-2.7-1.7-8.2-5.6-9.9l-0.1-0.1c-2.2-1-5-1.5-7.8-1.5c-2.8,0-5.6,0.5-7.8,1.5l-0.1,0.1c-3.9,1.7-5.2,7.2-5.6,9.9
		c-1.6-0.6-4.4-2.1-6.5-5.2c-2-3.1-7.3-12.2-7.3-17.6V1.2C2.5,0.6,1.9,0,1.2,0h0C0.6,0,0,0.6,0,1.2v20.1c0,16.5,13.3,30.1,29.6,30.2
		h0.2c8,0,15.5-3.1,21.1-8.8c5.6-5.6,8.8-13.1,8.8-21.1l0-20.3c0-0.1,0-0.1,0-0.2C59.8,0.6,59.2,0,58.5,0L58.5,0z M36.9,34.4
		c-0.5,0.7-1.3,1-2.3,1c-0.1,0-0.1,0-0.2,0c-0.9,0-1.3-0.2-1.4-0.4c-0.3-0.6,0.6-2.7,1.7-4.1c0.3-0.4,0.3-0.9,0.1-1.3
		c-0.2-0.4-0.6-0.7-1.1-0.7H26c-0.5,0-0.9,0.3-1.1,0.7c-0.2,0.4-0.2,0.9,0.1,1.3c1.1,1.4,2,3.4,1.7,4.1c-0.1,0.2-0.5,0.4-1.4,0.4
		c-0.1,0-0.1,0-0.2,0c-1,0-1.7-0.4-2.3-1c-1.5-1.8-1.3-5.6-1.1-7c0,0,0,0,0-0.1c0,0,0.5-4.1,2.7-4.8c2.3-0.8,4.4-1.8,5.4-2.2
		c1,0.5,3.1,1.5,5.4,2.2c1.9,0.6,2.6,3.7,2.7,4.8c0,0,0,0,0,0.1C38.2,28.7,38.4,32.6,36.9,34.4L36.9,34.4z M36.9,34.4"/>
</g>
</svg>
