<?xml version="1.0" encoding="utf-8"?>
<!-- Generator: Adobe Illustrator 19.2.0, SVG Export Plug-In . SVG Version: 6.00 Build 0)  -->
<svg version="1.1" id="Layer_1" xmlns="http://www.w3.org/2000/svg" xmlns:xlink="http://www.w3.org/1999/xlink" x="0px" y="0px"
	 viewBox="0 0 46.2 51.6" style="enable-background:new 0 0 46.2 51.6;" xml:space="preserve">
<style type="text/css">
	.st0{fill:#6D6E71;}
</style>
<g id="oECApo.tif">
	<g>
		<path class="st0" d="M14.7,26.9c-0.1,0.9-0.2,1.6-0.4,2.4c0,0.1-0.3,0.2-0.5,0.3c-1.7,0.4-3.4,0.7-5.2,1c-0.4,0.1-0.8,0.3-1.2,0.5
			c-0.7,0.3-0.7,0.8,0,1.1c0.6,0.3,1.3,0.6,2,0.7c2.5,0.6,5.1,0.8,7.8,0.9c3.9,0.1,7.9,0,11.7-0.7c0.9-0.2,1.8-0.5,2.7-0.9
			c0.3-0.1,0.6-0.4,0.6-0.7c0-0.2-0.3-0.5-0.6-0.6c-1.5-0.4-3.1-0.8-4.6-1.2c-0.6-0.1-1.2-0.2-2-0.3c0.1-0.9,0.2-1.7,0.3-2.6
			c1,0.2,2,0.3,2.9,0.5c1.9,0.4,3.9,0.9,5.6,1.9c0.4,0.2,0.8,0.5,1.1,0.9c0.4,0.4,0.6,0.9,0.6,1.5c0,1.2,0,2.4,0,3.6
			c0,1-0.4,1.8-1.2,2.2c-0.8,0.5-1,1.1-1.1,1.9c-0.3,2.6-1,5-2.3,7.2c-1.4,2.5-3.5,4.1-6.4,4.5c-3.4,0.5-6.8,0.5-10.1,0
			c-3.1-0.5-5.3-2.3-6.7-5c-1.2-2.4-1.8-4.9-2.1-7.5c0-0.4-0.2-0.6-0.5-0.8c-0.4-0.3-0.9-0.6-1.1-1c-0.3-0.4-0.5-0.9-0.5-1.4
			c-0.1-1.2,0-2.4,0-3.7c0-0.8,0.2-1.5,0.8-1.9c0.9-0.6,1.7-1.1,2.7-1.5C9.5,27.6,12,27.2,14.7,26.9z"/>
		<path class="st0" d="M46.2,0c-0.6,0.6-1.1,1.2-1.6,1.7c-0.5,0.6-1,1.2-1.5,1.8c-1.9,2.3-3.1,4.9-3.5,7.8c-0.2,1.6-0.6,3.2-1,4.8
			c-0.4,1.7-1.3,3.2-2.5,4.4c-2,2.1-4.6,2.9-7.4,2.3c-1-0.2-2-0.5-3.1-0.8c2.2-6.2,5.6-11.4,10.2-16c-0.5,0.3-1.1,0.6-1.6,0.9
			c-2.5,1.6-4.5,3.7-6.2,6c-1.9,2.5-3.5,5.2-4.8,8.1c-1.3,3.1-1.8,6.4-1.8,9.8c0,0.6-0.2,0.9-0.7,0.9c-0.7,0-1.5,0-2.2-0.1
			c-0.4,0-0.6-0.3-0.6-0.7c0.2-1.5,0.4-3,0.6-4.4c0-0.3,0-0.6-0.1-0.9c-1.5-4.4-4.6-7.5-8.7-9.5c-0.7-0.4-1.6-0.5-2.4-0.7
			c3.4,1.9,6.1,4.5,8.2,7.7c-2.4,2.5-5.8,2.3-7.8-0.4c-0.6-0.8-1.1-1.6-1.5-2.5c-1-2.7-2.9-4.5-5.3-5.9C0.6,14.1,0.4,14,0,13.7
			c1.2-0.3,2.2-0.5,3.3-0.7c2.5-0.5,5.1-0.7,7.6-0.3c2.5,0.5,4.6,1.6,6.1,3.8c0.8,1.2,1,2.5,0.5,3.9c-0.1,0.3-0.1,0.6,0.2,0.8
			c0.6,0.7,1.1,1.4,1.7,2.1c0.7-1.2,1.5-2.4,2.1-3.6C21,18.8,20.4,17.9,20,17c-0.8-1.9-0.6-3.9,0.3-5.7c1.7-3.6,4.4-6.1,7.9-7.8
			C31.3,2,34.6,1.1,38,0.7c2.5-0.3,5-0.5,7.6-0.7C45.7,0,45.9,0,46.2,0z"/>
	</g>
</g>
</svg>
