<?xml version="1.0" encoding="UTF-8"?>
<!-- Generator: Adobe Illustrator 19.2.1, SVG Export Plug-In . SVG Version: 6.00 Build 0)  -->
<!DOCTYPE svg PUBLIC "-//W3C//DTD SVG 1.1//EN" "http://www.w3.org/Graphics/SVG/1.1/DTD/svg11.dtd">
<svg version="1.1" id="Layer_1" xmlns="http://www.w3.org/2000/svg" xmlns:xlink="http://www.w3.org/1999/xlink" x="0px" y="0px" width="151.9px" height="44.6px" viewBox="0 0 151.9 44.6" style="enable-background:new 0 0 151.9 44.6;" xml:space="preserve">
<style type="text/css">
	.st0{fill:#CF264C;}
	.st1{fill:#FFFFFF;}
	.st2{fill:#D7DF23;}
</style>
<title>aerian-logo</title>
<path class="st0" d="M12.5,19.3C6,19.3,0.7,24.6,0.7,31.1S6,43,12.5,43H17c0.1,0,0.2-0.1,0.2-0.2l0,0v-3.2c0-0.1-0.1-0.2-0.2-0.2  c0,0,0,0,0,0h-4.5c-4.6,0-8.2-3.7-8.2-8.3s3.7-8.2,8.3-8.2c4.6,0,8.2,3.7,8.2,8.2v11.7c0,0.1,0.1,0.2,0.2,0.2l0,0h3.2  c0.1,0,0.2-0.1,0.2-0.2l0,0V31.1C24.4,24.6,19,19.3,12.5,19.3z"/>
<path class="st0" d="M89.7,19.3c-6.5,0-11.8,5.3-11.8,11.8S83.2,43,89.7,43h4.5c0.1,0,0.2-0.1,0.2-0.2c0,0,0,0,0,0v-3.2  c0-0.1-0.1-0.2-0.2-0.2l0,0h-4.5c-4.6,0-8.2-3.7-8.2-8.3c0-4.6,3.7-8.2,8.3-8.2c4.6,0,8.2,3.7,8.2,8.2v11.7c0,0.1,0.1,0.2,0.2,0.2  l0,0h3.2c0.1,0,0.2-0.1,0.2-0.2c0,0,0,0,0,0V31.1C101.6,24.6,96.3,19.3,89.7,19.3z"/>
<path class="st0" d="M48.2,35.8h3.2c0.1,0,0.2-0.1,0.2-0.2l0,0v-4.5c0-6.5-5.3-11.8-11.8-11.8c-6.5,0-11.8,5.3-11.8,11.8  c0,6.5,5.3,11.8,11.8,11.8h11.7c0.1,0,0.2-0.1,0.2-0.2c0,0,0,0,0,0v-3.2c0-0.1-0.1-0.2-0.2-0.2c0,0,0,0,0,0H39.8  c-4.6,0-8.2-3.7-8.2-8.2s3.7-8.2,8.2-8.2c4.6,0,8.2,3.7,8.2,8.2v4.5C48,35.7,48.1,35.8,48.2,35.8C48.2,35.8,48.2,35.8,48.2,35.8z"/>
<path class="st0" d="M67.1,19.4c0,0-0.1-0.1-0.1-0.1l0,0c-6.5,0.1-11.7,5.4-11.7,11.8v11.7c0,0.1,0.1,0.2,0.2,0.2c0,0,0,0,0,0h3.2  c0.1,0,0.2-0.1,0.2-0.2c0,0,0,0,0,0v-6.7c0,0,0,0,0,0v-4.9c0-4.5,3.6-8.2,8.1-8.2c0.1,0,0.2-0.1,0.2-0.2v-3.2  C67.1,19.4,67.1,19.4,67.1,19.4z"/>
<path class="st0" d="M70.9,19.3h3.2c0.1,0,0.2,0.1,0.2,0.2v23.3c0,0.1-0.1,0.2-0.2,0.2h-3.2c-0.1,0-0.2-0.1-0.2-0.2V19.5  C70.7,19.4,70.8,19.3,70.9,19.3z"/>
<path class="st0" d="M117,19.3c-6.5,0-11.8,5.3-11.8,11.8v11.7c0,0.1,0.1,0.2,0.2,0.2l0,0h3.2c0.1,0,0.2-0.1,0.2-0.2c0,0,0,0,0,0  v-6.7c0,0,0,0,0,0v-4.9c0-4.6,3.7-8.3,8.3-8.3c4.6,0,8.3,3.7,8.3,8.3v11.7c0,0.1,0.1,0.2,0.2,0.2l0,0h3.2c0.1,0,0.2-0.1,0.2-0.2  c0,0,0,0,0,0V31.1C128.9,24.6,123.6,19.3,117,19.3z"/>
<circle class="st0" cx="138.8" cy="12.9" r="11.9"/>
<polygon class="st1" points="141.6,6.4 135.2,12.9 141.6,19.3 "/>
<polygon class="st2" points="138.1,16.1 135,13 132,16.1 "/>
<polygon class="st1" points="145.2,15.9 141.9,15.9 141.9,19.3 "/>
</svg>